<svg xmlns="http://www.w3.org/2000/svg" width="25" height="21" viewBox="0 0 25 21">
    <g fill="#013759" fill-rule="nonzero">
        <path d="M23.839 9.732a.502.502 0 0 0-.511.015c-2.573 1.633-7.048 2.137-8.853 2.278a.502.502 0 0 0-.455.411 2.004 2.004 0 0 1-1.97 1.653c-.97 0-1.8-.696-1.972-1.654a.503.503 0 0 0-.455-.412c-1.806-.142-6.285-.648-8.852-2.276a.502.502 0 1 0-.77.424l-.001 7.935c0 1.107.9 2.008 2.008 2.008h20.083a2.01 2.01 0 0 0 2.008-2.008v-7.934c0-.183-.1-.352-.26-.44z"/>
        <path d="M22.09 3.044h-5.02V2.04A2.01 2.01 0 0 0 15.062.03H9.037A2.01 2.01 0 0 0 7.03 2.04v1.004h-5.02A2.01 2.01 0 0 0 0 5.052v2.32c0 .058.01.117.03.172.985 2.677 8.664 3.395 9.537 3.468a.512.512 0 0 0 .531-.387 1.997 1.997 0 0 1 1.951-1.557c.938 0 1.74.641 1.953 1.56a.502.502 0 0 0 .53.387c.872-.073 8.548-.784 9.536-3.47a.495.495 0 0 0 .03-.174V5.052a2.01 2.01 0 0 0-2.007-2.008zm-7.028 0H9.037V2.04h6.025v1.004z"/>
    </g>
</svg>
