<?xml version="1.0" encoding="UTF-8"?>
<svg width="27px" height="26px" viewBox="0 0 27 26" version="1.1" xmlns="http://www.w3.org/2000/svg" xmlns:xlink="http://www.w3.org/1999/xlink">
    <!-- Generator: Sketch 46.2 (44496) - http://www.bohemiancoding.com/sketch -->
    <title>Group</title>
    <desc>Created with Sketch.</desc>
    <defs></defs>
    <g id="Page-1" stroke="none" stroke-width="1" fill="none" fill-rule="evenodd">
        <g id="Artboard">
            <g id="Group">
                <rect id="Rectangle-8" fill="#D4D9E2" x="0" y="0" width="1" height="26"></rect>
                <path d="M26.6121101,6.46143119 C26.4004404,6.24924771 26.1490826,6.14341284 25.8590642,6.14341284 L24.7873578,6.14341284 L24.7873578,5.33963303 C24.7873578,4.9713945 24.6564771,4.65581651 24.3940734,4.39341284 C24.1316697,4.13152294 23.8160917,4 23.4478532,4 L22.912,4 C22.5437615,4 22.2286972,4.13152294 21.9662936,4.39341284 C21.7038899,4.65581651 21.572367,4.9713945 21.572367,5.33963303 L21.572367,6.14341284 L18.3578899,6.14341284 L18.3578899,5.33963303 C18.3578899,4.9713945 18.2268807,4.65581651 17.9644771,4.39341284 C17.7020734,4.13152294 17.3870092,4 17.0182569,4 L16.4824037,4 C16.1141651,4 15.7991009,4.13152294 15.5366972,4.39341284 C15.2742936,4.65581651 15.1434128,4.9713945 15.1434128,5.33963303 L15.1434128,6.14341284 L14.0717064,6.14341284 C13.7811743,6.14341284 13.5303303,6.24924771 13.3181468,6.46143119 C13.1058349,6.67322936 13,6.92458716 13,7.21511927 L13,17.9307706 C13,18.220789 13.1058349,18.471633 13.3181468,18.683945 C13.5303303,18.8961284 13.7811743,19.0019633 14.0717064,19.0019633 L25.8585505,19.0019633 C26.1490826,19.0019633 26.4004404,18.8961284 26.6121101,18.683945 C26.824422,18.471633 26.9302569,18.220789 26.9302569,17.9307706 L26.9302569,7.21511927 C26.9302569,6.92458716 26.824422,6.67322936 26.6121101,6.46143119 Z M14.0717064,17.9302569 L16.4824037,17.9302569 L16.4824037,15.5195596 L14.0717064,15.5195596 L14.0717064,17.9302569 Z M14.0717064,14.9837064 L16.4824037,14.9837064 L16.4824037,12.3050826 L14.0717064,12.3050826 L14.0717064,14.9837064 Z M14.0717064,11.7692294 L16.4824037,11.7692294 L16.4824037,9.35788991 L14.0717064,9.35788991 L14.0717064,11.7692294 Z M16.2942385,7.93900917 C16.2410642,7.88583486 16.2149908,7.82315596 16.2149908,7.75045872 L16.2149908,5.33963303 C16.2149908,5.26693578 16.2410642,5.20412844 16.2942385,5.15146789 C16.3474128,5.09829358 16.4102202,5.07170642 16.4824037,5.07170642 L17.0182569,5.07170642 C17.0910826,5.07170642 17.1537615,5.09829358 17.2069358,5.15146789 C17.2595963,5.20412844 17.2861835,5.26693578 17.2861835,5.33963303 L17.2861835,7.75045872 C17.2861835,7.82315596 17.2595963,7.88583486 17.2069358,7.93900917 C17.1537615,7.99179817 17.0910826,8.01838532 17.0182569,8.01838532 L16.4824037,8.01838532 C16.4102202,8.01838532 16.3474128,7.99179817 16.2942385,7.93900917 Z M17.0182569,17.9302569 L19.6975229,17.9302569 L19.6975229,15.5195596 L17.0182569,15.5195596 L17.0182569,17.9302569 Z M17.0182569,14.9837064 L19.6975229,14.9837064 L19.6975229,12.3050826 L17.0182569,12.3050826 L17.0182569,14.9837064 Z M17.0182569,11.7692294 L19.6975229,11.7692294 L19.6975229,9.35788991 L17.0182569,9.35788991 L17.0182569,11.7692294 Z M20.2332477,17.9302569 L22.912,17.9302569 L22.912,15.5195596 L20.2332477,15.5195596 L20.2332477,17.9302569 Z M20.2332477,14.9837064 L22.912,14.9837064 L22.912,12.3050826 L20.2332477,12.3050826 L20.2332477,14.9837064 Z M20.2332477,11.7692294 L22.912,11.7692294 L22.912,9.35788991 L20.2332477,9.35788991 L20.2332477,11.7692294 Z M22.7238349,7.93900917 C22.6706606,7.88583486 22.6445872,7.82315596 22.6445872,7.75045872 L22.6445872,5.33963303 C22.6445872,5.26693578 22.6706606,5.20412844 22.7238349,5.15146789 C22.7764954,5.09829358 22.8391743,5.07170642 22.912,5.07170642 L23.4478532,5.07170642 C23.5205505,5.07170642 23.5832294,5.09829358 23.6360183,5.15146789 C23.6891927,5.20412844 23.7157798,5.26693578 23.7157798,5.33963303 L23.7157798,7.75045872 C23.7157798,7.82315596 23.6891927,7.88583486 23.6360183,7.93900917 C23.5832294,7.99179817 23.5205505,8.01838532 23.4478532,8.01838532 L22.912,8.01838532 C22.8391743,8.01838532 22.7764954,7.99179817 22.7238349,7.93900917 Z M23.4478532,17.9302569 L25.8585505,17.9302569 L25.8585505,15.5195596 L23.4478532,15.5195596 L23.4478532,17.9302569 Z M23.4478532,14.9837064 L25.8585505,14.9837064 L25.8585505,12.3050826 L23.4478532,12.3050826 L23.4478532,14.9837064 Z M23.4478532,11.7692294 L25.8585505,11.7692294 L25.8585505,9.35788991 L23.4478532,9.35788991 L23.4478532,11.7692294 Z" id="calendar-with-spring-binder-and-date-blocks" fill="#CCCCCC"></path>
            </g>
        </g>
    </g>
</svg>