<svg xmlns="http://www.w3.org/2000/svg" width="17" height="20" viewBox="0 0 17 20">
    <g fill="#FFF" fill-rule="nonzero">
        <path d="M.996 9.004v9.425a.495.495 0 0 0 .497.491H14.87a.49.49 0 0 0 .497-.49V9.004a.495.495 0 0 0-.497-.49H1.493a.491.491 0 0 0-.497.49zm-.99 0a1.481 1.481 0 0 1 1.487-1.482h13.379c.82 0 1.485.663 1.487 1.482v9.425a1.48 1.48 0 0 1-1.487 1.482H1.492c-.819 0-1.484-.662-1.487-1.482V9.005z"/>
        <path d="M3.97 4.301A3.225 3.225 0 0 1 7.19 1.08h1.735a3.222 3.222 0 0 1 3.221 3.221v1.772s.137.34.527.34.464-.34.464-.34V4.301A4.214 4.214 0 0 0 8.926.09H7.19A4.215 4.215 0 0 0 2.98 4.301v3.717l.991-.19V4.301zM7.952 11.255v4.668a.496.496 0 1 0 .99 0v-4.668a.496.496 0 0 0-.99 0z"/>
    </g>
</svg>
