<svg xmlns="http://www.w3.org/2000/svg" width="17" height="21" viewBox="0 0 17 21">
    <g fill="#3270B2" fill-rule="nonzero">
        <path d="M1.296 9.147v9.424a.495.495 0 0 0 .497.491H15.17a.49.49 0 0 0 .497-.49V9.146a.495.495 0 0 0-.497-.49H1.793a.491.491 0 0 0-.497.49zm-.99 0a1.481 1.481 0 0 1 1.487-1.483h13.379c.82 0 1.485.663 1.487 1.483v9.424a1.48 1.48 0 0 1-1.487 1.482H1.792c-.819.001-1.484-.662-1.487-1.482V9.147z"/>
        <path d="M4.27 4.443a3.225 3.225 0 0 1 3.221-3.22h1.735a3.222 3.222 0 0 1 3.221 3.22v1.772s.137.34.527.34.464-.34.464-.34V4.443A4.214 4.214 0 0 0 9.226.231H7.49A4.215 4.215 0 0 0 3.28 4.443V8.16l.991-.19V4.443zM8.252 11.397v4.669a.496.496 0 1 0 .99 0v-4.669a.496.496 0 0 0-.99 0z"/>
    </g>
</svg>
