<svg xmlns="http://www.w3.org/2000/svg" width="60" height="60" viewBox="0 0 60 60">
    <g fill="none" fill-rule="evenodd">
        <circle cx="30" cy="30" r="30" fill="#183361"/>
        <path fill="#FFF" fill-rule="nonzero" d="M34.494 37.896c.61.636.61 1.4 0 2.01-.433.433-.865.84-1.272 1.272-.585.662-1.298.865-2.137.815-1.222-.077-2.341-.458-3.41-.993-2.391-1.17-4.427-2.773-6.157-4.808-1.272-1.502-2.315-3.155-3.002-4.987-.33-.89-.56-1.807-.509-2.773.051-.611.28-1.12.712-1.527.484-.458.916-.916 1.4-1.374.61-.61 1.374-.61 1.984 0l1.12 1.12 1.094 1.094c.636.636.636 1.399 0 2.035l-1.374 1.374c-.127.127-.127.203-.076.356.305.738.737 1.374 1.246 1.985.993 1.22 2.138 2.315 3.46 3.155.28.178.611.305.917.483.152.076.254.05.381-.076.458-.458.916-.942 1.374-1.4.61-.61 1.374-.61 1.985 0 .788.764 1.526 1.501 2.264 2.24zm7.557-12.289a7.612 7.612 0 0 1-7.608 7.608c-1.425 0-2.773-.382-3.893-1.069-1.12.814-2.29.942-3.13.814-.279-.05-.33-.432-.075-.56.737-.356 1.22-1.068 1.5-1.653a7.547 7.547 0 0 1-2.01-5.14A7.612 7.612 0 0 1 34.444 18a7.612 7.612 0 0 1 7.608 7.607zm-6.692-4.401a.912.912 0 0 0-.916-.916 5.332 5.332 0 0 0-5.317 5.317c0 .51.407.916.916.916a.912.912 0 0 0 .915-.916 3.491 3.491 0 0 1 3.486-3.485c.509-.026.916-.433.916-.916z"/>
    </g>
</svg>
