<svg xmlns="http://www.w3.org/2000/svg" width="20" height="23" viewBox="0 0 20 23">
    <path fill="#999" fill-rule="nonzero" d="M17.939 15.161l1.205 1.206-5.023 5.024-1.206-1.206 5.024-5.024zM1.46 19.783c-.24 0-.402-.16-.402-.402V16.97c0-3.095 2.291-5.667 5.386-5.989l1.166-.12-1.005-.603c-1.447-.924-2.331-2.452-2.331-4.14a4.837 4.837 0 0 1 4.823-4.823 4.837 4.837 0 0 1 4.823 4.823c0 1.688-.885 3.216-2.331 4.1l-1.005.603 1.165.12c2.412.282 4.381 1.93 5.065 4.14l.643-.643c-.804-2.01-2.492-3.577-4.662-4.14a5.58 5.58 0 0 0 1.929-4.22c0-3.095-2.532-5.627-5.627-5.627-3.095 0-5.627 2.532-5.627 5.627a5.58 5.58 0 0 0 1.93 4.22C2.424 11.102.254 13.795.254 16.97v2.411c0 .684.522 1.206 1.205 1.206h9.928l.803-.804H1.461zm17.283-5.426l-.402.402 1.205 1.206.402-.402-1.205-1.206zm-6.632 7.838l1.608-.402-1.206-1.206-.402 1.608z"/>
</svg>
