<svg xmlns="http://www.w3.org/2000/svg" width="21" height="18" viewBox="0 0 21 18">
    <path fill="#FFF" fill-rule="nonzero" d="M19.25 2.665h-4.375v-.888c0-.98-.785-1.777-1.75-1.777h-5.25c-.965 0-1.75.797-1.75 1.777v.888H1.75C.785 2.665 0 3.462 0 4.442v11.55c0 .98.785 1.777 1.75 1.777h17.5c.965 0 1.75-.797 1.75-1.777V4.442c0-.98-.785-1.777-1.75-1.777zM7 1.777c0-.49.393-.889.875-.889h5.25c.482 0 .875.4.875.889v.888H7v-.888zm13.125 14.215c0 .49-.393.889-.875.889H1.75a.883.883 0 0 1-.875-.889V9.526c.258.153.555.247.875.247h7v1.333a.44.44 0 0 0 .438.444h2.625a.44.44 0 0 0 .437-.444V9.773h7c.32 0 .617-.094.875-.247v6.466zm-10.5-5.33V8.885h1.75v1.777h-1.75zm10.5-2.666c0 .49-.393.889-.875.889h-7V8.44a.44.44 0 0 0-.438-.444H9.187a.44.44 0 0 0-.437.444v.445h-7a.883.883 0 0 1-.875-.889V4.442c0-.49.393-.888.875-.888h17.5c.482 0 .875.399.875.888v3.554z"/>
</svg>
