<svg xmlns="http://www.w3.org/2000/svg" width="82" height="82" viewBox="0 0 82 82">
    <g fill="#3270B2" fill-rule="evenodd" stroke="#3270B2">
        <path fill-opacity=".05" stroke-opacity=".3" d="M41 1C18.974 1 1 18.974 1 41s17.974 40 40 40 40-17.974 40-40S63.026 1 41 1z"/>
        <g fill-rule="nonzero">
            <path d="M38.788 52h-.042a.465.465 0 0 1-.34-.195l-3.34-4.758a.465.465 0 0 1 .759-.535l3.01 4.279 6.278-6.274a.465.465 0 0 1 .651.655l-6.66 6.67a.465.465 0 0 1-.316.158z"/>
            <path stroke-width=".6" d="M28.92 52.995a.686.686 0 0 1-.687-.686v-7.323a.686.686 0 1 1 1.373 0v7.323a.686.686 0 0 1-.686.686z"/>
            <path stroke-width=".6" d="M49.377 58.623H32.056a4.076 4.076 0 0 1-4.015-3.432.693.693 0 1 1 1.373-.199 2.697 2.697 0 0 0 2.656 2.292h17.307a2.683 2.683 0 0 0 2.684-2.717V42.056a2.683 2.683 0 0 0-2.684-2.683H32.056a2.683 2.683 0 0 0-2.683 2.683.686.686 0 0 1-1.373 0A4.056 4.056 0 0 1 32.056 38h17.321a4.056 4.056 0 0 1 4.056 4.056v12.51a4.056 4.056 0 0 1-4.056 4.057z"/>
            <path stroke-width=".6" d="M33.353 39.434a.686.686 0 0 0 .686-.686v-6.863a6.54 6.54 0 0 1 6.513-6.512 6.56 6.56 0 0 1 6.526 6.526v6.56a.686.686 0 1 0 1.373 0V31.9A7.933 7.933 0 0 0 40.552 24a7.913 7.913 0 0 0-7.885 7.899v6.863a.686.686 0 0 0 .686.672z"/>
        </g>
    </g>
</svg>
