<svg xmlns="http://www.w3.org/2000/svg" width="20" height="15" viewBox="0 0 20 15">
    <path fill="#FFF" fill-rule="nonzero" d="M18.452 0H1.547C.7 0 0 .7 0 1.546v11.153c0 .846.7 1.546 1.547 1.546h16.905c.847 0 1.547-.7 1.547-1.546V1.546C20.035.699 19.336 0 18.452 0zm-5.783 7.546l6.446-4.97v9.975l-6.446-5.005zM1.584.92h16.868c.294 0 .552.221.626.479l-8.545 6.625c-.331.258-.884.258-1.178 0L.92 1.472c.073-.294.331-.552.663-.552zM.92 12.551v-9.9l6.371 4.931-6.371 4.97zm.663.847c-.074 0-.148 0-.184-.037l6.666-5.19.736.59c.332.257.737.367 1.142.367.405 0 .847-.11 1.142-.368l.81-.626 6.74 5.227c-.074.037-.11.037-.184.037H1.584z"/>
</svg>
