<svg xmlns="http://www.w3.org/2000/svg" width="60" height="60" viewBox="0 0 60 60">
    <g fill="none" fill-rule="evenodd">
        <circle cx="30" cy="30" r="30" fill="#183361"/>
        <g fill="#FFF" fill-rule="nonzero">
            <path d="M42.746 29.068a.542.542 0 0 0-.552.017c-2.778 1.764-7.611 2.308-9.56 2.46a.542.542 0 0 0-.492.444 2.164 2.164 0 0 1-2.129 1.785 2.164 2.164 0 0 1-2.129-1.786.543.543 0 0 0-.491-.445c-1.95-.153-6.788-.7-9.56-2.458a.542.542 0 1 0-.832.458l-.001 8.569c0 1.196.973 2.169 2.169 2.169h21.689a2.171 2.171 0 0 0 2.169-2.169v-8.569a.542.542 0 0 0-.281-.475z"/>
            <path d="M40.858 22.253h-5.422V21.17A2.171 2.171 0 0 0 33.266 19H26.76a2.171 2.171 0 0 0-2.169 2.169v1.084H19.17A2.171 2.171 0 0 0 17 24.423v2.504c0 .064.011.127.033.187 1.063 2.891 9.357 3.666 10.3 3.745a.553.553 0 0 0 .573-.418 2.157 2.157 0 0 1 2.107-1.68c1.013 0 1.88.691 2.109 1.682a.543.543 0 0 0 .573.42c.942-.08 9.231-.847 10.298-3.75a.535.535 0 0 0 .034-.186v-2.505a2.17 2.17 0 0 0-2.17-2.169zm-7.591 0H26.76V21.17h6.507v1.084z"/>
        </g>
    </g>
</svg>
