<svg xmlns="http://www.w3.org/2000/svg" width="82" height="82" viewBox="0 0 82 82">
    <g fill="#D0021B" fill-rule="evenodd">
        <path fill-opacity=".05" stroke="#D0021B" stroke-opacity=".3" d="M41 1C18.974 1 1 18.974 1 41s17.974 40 40 40 40-17.974 40-40S63.026 1 41 1z"/>
        <path d="M43.078 57.623a2.572 2.572 0 0 1-2.597 2.598 2.572 2.572 0 0 1-2.598-2.598v-3.117a2.572 2.572 0 0 1 2.598-2.597 2.572 2.572 0 0 1 2.597 2.597v3.117zM43.078 45.156a2.572 2.572 0 0 1-2.597 2.597 2.572 2.572 0 0 1-2.598-2.597v-19.74a2.572 2.572 0 0 1 2.598-2.598 2.572 2.572 0 0 1 2.597 2.598v19.74z"/>
    </g>
</svg>
