<svg xmlns="http://www.w3.org/2000/svg" width="21" height="18" viewBox="0 0 21 18">
    <path fill="#999" fill-rule="evenodd" d="M20.806 8.795a.521.521 0 0 1 0 .736l-4.167 4.167a.52.52 0 1 1-.736-.737l3.277-3.277h-8.118a.521.521 0 0 1 0-1.041h8.118l-3.277-3.278a.521.521 0 0 1 .736-.737l4.167 4.167zM8.979 18.017c-4.882 0-8.854-3.972-8.854-8.854S4.097.309 8.979.309c1.527 0 3.04.402 4.373 1.161a.522.522 0 0 1-.514.905A7.81 7.81 0 0 0 8.979 1.35c-4.308 0-7.812 3.505-7.812 7.813s3.504 7.812 7.812 7.812a7.82 7.82 0 0 0 3.859-1.023.52.52 0 1 1 .514.905 8.867 8.867 0 0 1-4.373 1.16z"/>
</svg>
