<svg xmlns="http://www.w3.org/2000/svg" width="50" height="55" viewBox="0 0 50 55">
    <g fill="#000" fill-rule="nonzero" opacity=".3">
        <path d="M21.764 25.95c4.535 0 8.861 1.728 12.102 4.318H37.098c-2.598-2.598-6.055-4.76-9.73-5.621 4.318-2.163 7.133-6.481 7.133-11.676C34.509 5.838 28.679 0 21.538 0c-7.141 0-12.98 5.83-12.98 12.97 0 5.187 3.024 9.514 7.133 11.677C6.83 27.027.131 35.455.131 45.4v6.481h25.943V49.72H2.312V45.4c0-10.799 8.644-19.452 19.452-19.452zM10.956 12.98c0-6.056 4.76-10.808 10.808-10.808 6.047 0 10.807 4.76 10.807 10.807 0 6.047-4.76 10.807-10.807 10.807-6.047 0-10.808-4.752-10.808-10.807zM49.868 45.401h-6.48v-6.48h-2.172v6.48h-6.482v2.164h6.482v6.49h2.171v-6.49h6.481z"/>
    </g>
</svg>
