<svg xmlns="http://www.w3.org/2000/svg" width="15" height="16" viewBox="0 0 15 16">
    <g fill="#3270B2" fill-rule="evenodd">
        <path fill-rule="nonzero" d="M7.4.213a3.42 3.42 0 0 0-3.413 3.414A3.42 3.42 0 0 0 7.4 7.04a3.42 3.42 0 0 0 3.413-3.413A3.42 3.42 0 0 0 7.4.213z"/>
        <path stroke="#3270B2" stroke-width=".5" d="M7.4 8.107c-3.531 0-6.4 2.769-6.4 6.213v.613h.853v-.613c0-2.972 2.46-5.36 5.547-5.36 3.087 0 5.547 2.388 5.547 5.36v.613h.853v-.613c0-3.444-2.869-6.213-6.4-6.213z"/>
    </g>
</svg>
